<svg xmlns="http://www.w3.org/2000/svg" width="16" height="16" viewBox="0 0 16 16">
  <path fill="#424242" d="M6.5 1.5h3v1.2c.47.12.92.31 1.33.56l.85-.85 2.12 2.12-.85.85c.25.41.44.86.56 1.33H15.5v3h-1.99c-.12.47-.31.92-.56 1.33l.85.85-2.12 2.12-.85-.85c-.41.25-.86.44-1.33.56V15.5h-3v-1.99c-.47-.12-.92-.31-1.33-.56l-.85.85-2.12-2.12.85-.85c-.25-.41-.44-.86-.56-1.33H.5v-3h1.99c.12-.47.31-.92.56-1.33l-.85-.85L4.32 2.21l.85.85c.41-.25.86-.44 1.33-.56V1.5Zm1.5 4.25A2.75 2.75 0 1 0 10.75 8 2.75 2.75 0 0 0 8 5.75Z"/>
</svg>
